Coordinates
version=1
nRows=11
nColumns=40
inDegrees=yes

Units are S.I. units (second, meters, Newtons, ...)
If the header above contains a line with 'inDegrees', this indicates whether rotational values are in degrees (yes) or radians (no).

endheader
time	pelvis_tilt	pelvis_list	pelvis_rotation	pelvis_tx	pelvis_ty	pelvis_tz	hip_flexion_r	hip_adduction_r	hip_rotation_r	knee_angle_r	knee_angle_r_beta	ankle_angle_r	subtalar_angle_r	mtp_angle_r	hip_flexion_l	hip_adduction_l	hip_rotation_l	knee_angle_l	knee_angle_l_beta	ankle_angle_l	subtalar_angle_l	mtp_angle_l	lumbar_extension	lumbar_bending	lumbar_rotation	arm_flex_r	arm_add_r	arm_rot_r	elbow_flex_r	pro_sup_r	wrist_flex_r	wrist_dev_r	arm_flex_l	arm_add_l	arm_rot_l	elbow_flex_l	pro_sup_l	wrist_flex_l	wrist_dev_l
     11.65833333	    -10.78390193	     -6.58329828	     -2.45178593	     -0.23745133	      1.16107712	     -0.01579294	     83.37571896	     -7.00408136	     -5.54106142	    109.37635476	      1.90897751	     25.44141530	      7.38639555	      0.00000000	     43.57697347	    -15.85541319	      1.37921059	     56.36858389	      0.98381738	     -3.26605399	     -3.21035394	      0.00000000	    -62.14662289	      4.94785045	      8.35669531	     89.46540968	    -15.92816062	     60.95653317	     33.76233190	     69.66914060	      0.00000000	      0.00000000	     79.45428577	    -13.86941305	     28.64528539	     39.55868280	     65.24789649	      0.00000000	      0.00000000
     11.66666667	    -11.05602823	     -6.85296314	     -2.35217549	     -0.23800878	      1.16016720	     -0.01568792	     83.56929107	     -6.80817301	     -5.92568870	    107.91619281	      1.88349288	     25.21429422	      7.58849678	      0.00000000	     44.54329554	    -16.00903109	      2.05488142	     58.51052321	      1.02120128	     -2.77446818	     -4.10210015	      0.00000000	    -61.82009978	      5.22703520	      8.52506373	     89.55301670	    -15.82111412	     61.59527986	     33.23752524	     70.14728471	      0.00000000	      0.00000000	     79.46302449	    -13.89812790	     28.85003587	     39.29714253	     65.54239058	      0.00000000	      0.00000000
     11.67500000	    -10.99155519	     -6.47093250	     -2.24625636	     -0.23833602	      1.16064926	     -0.01608456	     83.34276438	     -6.76736672	     -5.57918839	    106.34708258	      1.85610674	     24.98786507	      7.55372933	      0.00000000	     44.75567627	    -15.66169731	      1.98443723	     60.15704803	      1.04993856	     -2.48729321	     -4.09228812	      0.00000000	    -61.91346571	      5.07928839	      8.17377770	     89.47355364	    -15.85526325	     60.85812012	     33.64174683	     69.82824723	      0.00000000	      0.00000000	     79.52780688	    -13.89999782	     28.74892755	     39.47014195	     65.35109612	      0.00000000	      0.00000000
     11.68333333	    -11.03754755	     -6.70151018	     -2.18232656	     -0.23866551	      1.16023550	     -0.01588624	     82.99374129	     -6.47002826	     -5.86101276	    104.65292399	      1.82653810	     24.77983828	      7.79100033	      0.00000000	     45.54801649	    -15.90876226	      2.46257165	     62.46205652	      1.09016854	     -1.80382174	     -4.61596639	      0.00000000	    -61.82846886	      5.25199497	      8.33651860	     89.55341306	    -15.77256588	     61.38882345	     33.20512635	     70.20743246	      0.00000000	      0.00000000	     79.60201858	    -13.93852208	     29.07094089	     39.22775424	     65.48793333	      0.00000000	      0.00000000
     11.69166667	    -10.91197151	     -6.54734360	     -2.10145088	     -0.23900784	      1.16029144	     -0.01609863	     82.43196243	     -6.31166176	     -5.72260829	    102.90650901	      1.79605740	     24.52476908	      7.72407704	      0.00000000	     46.04650334	    -15.77891040	      2.65230348	     64.60466495	      1.12756412	     -1.28046174	     -4.83669934	      0.00000000	    -61.91243195	      5.21107893	      8.19316640	     89.55041157	    -15.77305747	     61.31971157	     33.23277830	     69.99729038	      0.00000000	      0.00000000	     79.70013646	    -13.92092035	     29.25406697	     39.12546591	     65.13466428	      0.00000000	      0.00000000
     11.70000000	    -10.92844249	     -6.56925776	     -2.00242172	     -0.23953816	      1.16028804	     -0.01605319	     81.84561471	     -5.96825431	     -5.73621734	    100.92945167	      1.76155124	     23.98827521	      7.62244782	      0.00000000	     46.88847483	    -15.84221750	      2.92135861	     66.91483983	      1.16788427	     -0.81476037	     -5.08257701	      0.00000000	    -61.90490219	      5.25829281	      8.16452907	     89.56596456	    -15.73304321	     61.45652070	     33.24028573	     69.17499878	      0.00000000	      0.00000000	     79.84612907	    -13.97219664	     29.64811133	     39.19236859	     64.17526840	      0.00000000	      0.00000000
     11.70833333	    -11.07776574	     -6.57255514	     -1.97359925	     -0.24034091	      1.16007081	     -0.01596479	     81.30610749	     -5.46919696	     -5.65498423	     98.82121665	      1.72475560	     23.49751799	      7.19178644	      0.00000000	     47.94433940	    -15.90491620	      3.26353393	     69.23432834	      1.20836698	     -0.41208392	     -5.14144345	      0.00000000	    -61.74765721	      5.25208378	      8.17253554	     89.54126766	    -15.77149650	     60.85650435	     33.06338249	     70.96440653	      0.00000000	      0.00000000	     79.91867772	    -13.89028597	     29.26545493	     39.14640250	     65.39164489	      0.00000000	      0.00000000
     11.71666667	    -10.94601030	     -6.67582794	     -1.83773956	     -0.24060420	      1.16025272	     -0.01586502	     80.29735466	     -5.19471026	     -5.81671969	     96.66726015	      1.68716197	     22.88727163	      7.01852603	      0.00000000	     48.79643195	    -15.99715918	      3.76872254	     71.64179041	      1.25038512	      0.04778273	     -4.99049928	      0.00000000	    -61.87212809	      5.33407103	      8.21042621	     89.54608230	    -15.77074474	     61.00050324	     33.04201138	     70.29383526	      0.00000000	      0.00000000	     80.06936565	    -13.86856133	     29.63704918	     38.99333097	     64.98829946	      0.00000000	      0.00000000
     11.72500000	    -10.87092261	     -6.36015407	     -1.59723213	     -0.24100682	      1.16014194	     -0.01644980	     79.41536790	     -5.42110589	     -5.68405793	     94.59888989	      1.65106210	     22.16392132	      7.48982929	      0.00000000	     49.73932891	    -15.52634167	      4.12730539	     74.07581771	      1.29286692	      0.19618681	     -5.43843939	      0.00000000	    -61.87054849	      5.30246987	      7.77421429	     89.56438511	    -15.64785768	     61.44972044	     32.99441324	     68.53496351	      0.00000000	      0.00000000	     80.19245083	    -13.94716453	     30.17240273	     39.11907516	     63.15093522	      0.00000000	      0.00000000
     11.73333333	    -10.23942901	     -6.17704483	     -1.12508791	     -0.24016926	      1.16074347	     -0.01728162	     77.60302427	     -5.91229046	     -5.83952130	     92.45844953	      1.61370437	     21.51765281	      7.86663730	      0.00000000	     50.07781120	    -15.09875315	      4.57410879	     76.53447134	      1.33577852	      0.79984857	     -5.41014342	      0.00000000	    -62.39231414	      5.47354876	      7.51692861	     89.51039314	    -15.78485435	     61.28363591	     32.90677558	     68.87333674	      0.00000000	      0.00000000	     80.57641444	    -13.38611456	     29.88687175	     38.07364144	     63.56737727	      0.00000000	      0.00000000
     11.74166667	    -10.26948844	     -6.34900846	     -0.97973344	     -0.24082255	      1.16074193	     -0.01730473	     76.42757825	     -5.77684395	     -6.22671450	     90.02428002	      1.57122009	     20.76948111	      7.94229900	      0.00000000	     51.36507715	    -15.15554987	      5.27416069	     79.04462828	      1.37958902	      1.17633432	     -5.01781467	      0.00000000	    -62.39486055	      5.59316700	      7.57409874	     89.50096115	    -15.85413292	     60.69032436	     32.80298601	     70.58716443	      0.00000000	      0.00000000	     80.55498487	    -13.47301716	     29.67473878	     38.26628875	     65.88799873	      0.00000000	      0.00000000
